<?xml version="1.0" encoding="utf-8"?>
<!-- Generator: Adobe Illustrator 21.1.0, SVG Export Plug-In . SVG Version: 6.00 Build 0)  -->
<svg version="1.1" id="Layer_1" xmlns="http://www.w3.org/2000/svg" xmlns:xlink="http://www.w3.org/1999/xlink" x="0px" y="0px"
	 viewBox="0 0 538 149" style="enable-background:new 0 0 538 149;" xml:space="preserve">
<style type="text/css">
	.st0{fill:#0080D1;}
	.st1{fill:#FFFFFF;}
	.st2{fill:#007BCB;}
	.st3{fill:#E64623;}
</style>
<title>LOGO_02</title>
<desc>Created with Sketch.</desc>
<g>
	
		<text transform="matrix(1 0 0 1 434.8918 -105.973)" class="st2" style="font-family:'Arial-BoldMT'; font-size:100.32px; letter-spacing:-4;"> </text>
	<g id="Group-7" transform="translate(0.000000, 18.479999)">
		<path id="Oval" class="st0" d="M35.7-90.5c14.3-19.2,23.6-31.7,27.9-37.6c4.3-6,6.9-13.3,6.9-21.2c0-19.8-16-35.9-35.6-35.9
			s-35.6,16.1-35.6,35.9c0,8.3,2.8,15.9,7.5,22c4.2,5.5,13.3,17.9,27.2,36.8C34.1-90.1,35.4-90.1,35.7-90.5z"/>
		<g id="Group-6" transform="translate(11.879999, 12.340464)">
			<g id="Group-5">
				<path id="Combined-Shape" class="st1" d="M32.4-170.9h10.4c2.1,0,3.8,1.7,3.8,3.8v11.5c0,2.1-1.7,3.8-3.8,3.8H32.4v10.5
					c0,2.1-1.7,3.8-3.8,3.8H17.2c-2.1,0-3.8-1.7-3.8-3.8v-10.5H3c-2.1,0-3.8-1.7-3.8-3.8V-167c0-2.1,1.7-3.8,3.8-3.8h10.4v-10.5
					c0-2.1,1.7-3.8,3.8-3.8h11.4c2.1,0,3.8,1.7,3.8,3.8V-170.9z"/>
			</g>
			<g id="Group-2" transform="translate(9.028799, 11.253767)">
				<g id="Group" transform="translate(0.234035, 0.255765)">
					<path id="Path-2" class="st0" d="M0.7-177.4c4.2,1.9,7.4,4.8,9.4,8.6c2.1,3.9,2.9,8.4,2.5,13.6h0c-0.1,0.7,0.4,1.3,1.1,1.3
						c0,0,0.1,0,0.1,0l0,0c0.7,0,1.2-0.5,1.2-1.2c0,0,0-0.1,0-0.1c-0.6-5.1,0.1-9.5,2.1-13.2c2-3.7,5.3-6.8,10-9.3l0,0
						c0.6-0.3,0.8-1.1,0.5-1.7c0,0,0-0.1-0.1-0.1l0,0c-0.3-0.5-1-0.6-1.5-0.3c-0.1,0-0.1,0.1-0.2,0.1c-4,4.2-8,6.3-12,6.3
						c-4,0-7.9-2-11.9-6.1h0c-0.4-0.5-1.2-0.5-1.6,0c-0.1,0.1-0.1,0.2-0.2,0.2l0,0c-0.4,0.6-0.2,1.5,0.5,1.9
						C0.6-177.5,0.6-177.4,0.7-177.4L0.7-177.4z"/>
					<ellipse id="Oval_1_" class="st0" cx="13.8" cy="-181.8" rx="3.3" ry="3.3"/>
				</g>
			</g>
		</g>
	</g>
	<g>
		
			<text transform="matrix(1 0 0 1 81.2469 -81.7138)" class="st2" style="font-family:'Arial-BoldMT'; font-size:100.32px; letter-spacing:-4;">asupathri</text>
	</g>
</g>
<rect class="st3" width="538" height="149"/>
</svg>
