<?xml version="1.0" encoding="utf-8"?>
<!-- Generator: Adobe Illustrator 21.1.0, SVG Export Plug-In . SVG Version: 6.00 Build 0)  -->
<svg version="1.1" id="Layer_1" xmlns="http://www.w3.org/2000/svg" xmlns:xlink="http://www.w3.org/1999/xlink" x="0px" y="0px"
	 viewBox="0 0 512 512" style="enable-background:new 0 0 512 512;" xml:space="preserve">
<style type="text/css">
	.st0{fill:#0080d1;}
	.st1{fill:#FFFFFF;}
</style>
<title>LOGO</title>
<desc>Created with Sketch.</desc>
<g id="LOGO">
	<g id="Group-7" transform="translate(83.000000, 32.000000)">
		<path id="Oval" class="st0" d="M179.9,462.5c70.6-93.8,116.3-155,137.2-183.3c21.4-29.1,34-64.9,34-103.7
			C351,78.5,272.4,0,175.5,0S0,78.5,0,175.4c0,40.4,13.7,77.7,36.7,107.4c20.9,27,65.6,87.3,134,179.7
			C172.3,464.6,178.4,464.4,179.9,462.5z"/>
		<g id="Group-6" transform="translate(70.200000, 71.937984)">
			<g id="Group-5">
				<path id="Combined-Shape" class="st1" d="M147.4,63.1h54.2c5,0,9,4,9,9v66.2c0,5-4,9-9,9h-54.2v54.1c0,5-4,9-9,9H72.2
					c-5,0-9-4-9-9v-54.1H9c-5,0-9-4-9-9V72.1c0-5,4-9,9-9h54.2V9c0-5,4-9,9-9h66.2c5,0,9,4,9,9V63.1z"/>
			</g>
			<g id="Group-2" transform="translate(53.100000, 63.844961)">
				<g id="Group" transform="translate(0.183454, 0.255453)">
					<path id="Path-2" class="st0" d="M5.5,27.9c15.1,6.8,26.3,17,33.8,30.6c7.6,13.9,10.6,30,8.8,48.4l0,0
						c-0.2,2.4,1.5,4.5,3.9,4.7c0.1,0,0.3,0,0.4,0l0,0c2.3,0,4.2-1.9,4.2-4.2c0-0.2,0-0.3,0-0.5c-2.1-18.1,0.4-33.8,7.6-47
						c7.2-13.3,19.1-24.3,35.8-33.2v0c2.1-1.1,2.9-3.8,1.8-5.9c-0.1-0.1-0.2-0.3-0.2-0.4l0,0c-1.2-1.8-3.7-2.3-5.5-1
						c-0.2,0.2-0.4,0.3-0.6,0.5C81.1,34.7,66.7,42.2,52.4,42.2c-14.2,0-28.4-7.3-42.7-21.9l0,0c-1.6-1.6-4.2-1.7-5.8-0.1
						c-0.3,0.3-0.5,0.6-0.7,0.9l0,0c-1.3,2.3-0.6,5.3,1.8,6.6C5.2,27.8,5.3,27.8,5.5,27.9L5.5,27.9z"/>
					<ellipse id="Oval_1_" class="st0" cx="52.4" cy="12.3" rx="12" ry="11.9"/>
				</g>
			</g>
		</g>
	</g>
</g>
</svg>
